<?xml version="1.0"?>
<svg width="32" height="16" xmlns="http://www.w3.org/2000/svg" xmlns:svg="http://www.w3.org/2000/svg">
 <g class="layer">
  <title>Layer 1</title>
  <path clip-rule="evenodd" d="m-604.97,6.94l0,-3.34l0,-28.68l0,-30.29l0,-1.95l-0.11,-24.19l0.13,-19.49l1.97,4.42c1.08,2.43 2.54,5.17 3.24,6.09c0.88,1.16 1.27,2.29 1.27,3.7l0,2.03l2.17,0c1.58,0 2.44,-0.28 3.13,-1.05c0.52,-0.58 1.85,-1.53 2.95,-2.12c1.95,-1.05 2.59,-1.08 25,-1.22c21.58,-0.14 23.26,-0.09 27.25,0.86c2.34,0.55 5.49,1.22 7,1.5l0.4,0.07c0.42,0.07 0.82,0.15 1.22,0.22c8.66,1.5 17.58,1.5 218.45,1.49l8.93,0l216.25,0l7.5,-1.15c4.13,-0.63 9.23,-1.58 11.33,-2.12c3.53,-0.89 5.66,-0.97 26.25,-0.96c21.44,0.01 22.52,0.05 24.66,1.02c1.23,0.56 2.95,1.57 3.84,2.24c1.09,0.84 2.25,1.22 3.64,1.22l2.03,0l0,-1.97c0,-1.3 0.44,-2.63 1.29,-3.88c1.13,-1.66 1.87,-3.12 4.39,-8.64c0.44,-0.97 0.6,3.35 0.7,18.95l0.13,20.19l8.12,-0.33c9.65,-0.4 14.08,-1.19 19.41,-3.5l3.96,-1.71l0,36.77l0,36.77l-2.23,2.14c-1.48,1.41 -3.13,2.41 -4.88,2.93c-3.16,0.96 -11.62,1.73 -19.01,1.75l-5.38,0l0,16.83c0,9.26 -0.15,16.68 -0.33,16.5c-0.19,-0.19 -1.08,-2.05 -2,-4.16c-0.91,-2.1 -2.21,-4.54 -2.88,-5.42c-0.77,-1 -1.28,-2.43 -1.38,-3.8c-0.15,-2.01 -0.28,-2.22 -1.6,-2.37c-1.02,-0.11 -2.21,0.37 -4.09,1.67c-4.66,3.21 -5.01,3.25 -28.77,3.25c-21.03,0 -21.47,-0.02 -26.49,-1.24c-5.9,-1.43 -14.16,-2.59 -22.71,-3.2c-6.5,-0.46 -416.6,-0.27 -425.25,0.2c-5.74,0.31 -15.09,1.43 -18.86,2.25c-1.32,0.28 -3.85,0.86 -5.64,1.28c-2.72,0.64 -6.86,0.74 -25.5,0.61c-22.1,-0.15 -22.27,-0.16 -24.58,-1.31c-1.28,-0.64 -2.72,-1.59 -3.2,-2.12c-0.61,-0.68 -1.53,-0.97 -3.05,-0.97l-2.17,0l0,2.02c0,1.35 -0.34,2.38 -1.03,3.12c-0.57,0.61 -1.65,2.46 -2.41,4.11c-0.3,0.66 -0.57,1.26 -0.82,1.81l0,0.01l0,0c-0.85,1.89 -1.37,3.06 -1.69,3.01c-0.51,-0.08 -0.51,-3.3 -0.51,-11.68c0,-1.52 0,-3.2 -0.01,-5.07l-0.03,-18.42l0,-4.68zm58.41,-87.82l8.84,1.37l235,0l235,0l7.75,-1.25c7.36,-1.18 8.78,-1.25 28.25,-1.25l20.5,0l1.81,3.66c1,2.02 2.08,4.94 2.41,6.5c0.43,2.09 0.54,14.66 0.43,47.33l-0.15,44.48l-1.32,3.38c-0.72,1.86 -1.84,4.17 -2.5,5.13l-1.18,1.75l-19.75,-0.14c-18.36,-0.13 -20.46,-0.23 -29.75,-1.51l-10,-1.38l-234,0.14l-234,0.14l-8.5,1.36c-8.15,1.31 -9.27,1.37 -27.12,1.37l-18.62,0.01l-1.26,-1.91c-0.69,-1.05 -1.76,-3.24 -2.38,-4.87l-1.12,-2.97l-0.14,-45.48c-0.11,-33.39 0,-46.09 0.43,-47.74c0.32,-1.24 1.37,-3.88 2.33,-5.87l1.75,-3.63l19.23,0c18.5,0 19.56,0.06 28.06,1.38zm9.59,-4.66c-1.78,-0.38 -3.9,-0.93 -4.7,-1.21c-1.72,-0.6 -40.83,-0.59 -44.4,0.01c-1.29,0.22 -2.86,0.75 -3.49,1.19c-1.04,0.73 1.18,0.79 27.35,0.76c25.75,-0.04 28.18,-0.11 25.24,-0.75zm-64.52,-3.25c0.35,0.66 0.51,21.12 0.5,62.86c-0.01,62.69 -0.04,63.64 -1.66,63.64c-0.18,0 -0.32,-28.68 -0.32,-63.73c0,-40.61 0.18,-63.73 0.48,-63.73c0.27,0 0.72,0.43 1,0.96zm36.27,123.39c20.96,0.14 22.77,0.08 26.5,-0.84l4,-0.98l-28,-0.02c-26.66,-0.01 -27.93,0.03 -26.5,0.84c1.34,0.77 3.86,0.87 24,1zm494.52,-5.86c3.57,0.29 7.27,0.72 8.23,0.95c0.96,0.23 -107.04,0.42 -240,0.42c-148.55,0.01 -241.13,-0.17 -240.15,-0.45c0.87,-0.26 3.91,-0.66 6.75,-0.89c7.87,-0.64 457.26,-0.68 465.17,-0.03zm-470.77,-110.31c3.95,0.81 474.77,0.8 478,-0.01c1.69,-0.42 -58.17,-0.57 -239.25,-0.56c-181.2,0 -240.81,0.14 -238.75,0.57zm525.25,-4.33l2,1.1l-28.5,-0.03c-16.66,-0.02 -27.67,-0.21 -26.5,-0.45c1.1,-0.23 3.01,-0.76 4.25,-1.17c1.87,-0.61 5.97,-0.72 24.5,-0.65c21.92,0.09 22.28,0.11 24.25,1.2zm-24.5,120.58c22.12,-0.03 25.11,-0.24 25.63,-1.85c0.16,-0.49 -5.58,-0.62 -27.59,-0.62c-15.28,0 -27.79,0.17 -27.79,0.38c0,0.21 1.74,0.77 3.88,1.25c3.37,0.75 6.71,0.86 25.87,0.84zm69.75,-29c0,1.79 -2.57,4.1 -5.56,4.99c-2.53,0.76 -11.65,1.53 -18.31,1.54l-5.13,0l0,-1.62l0,-1.62l8.63,-0.02c5.56,0 9.6,-0.25 11.37,-0.69c2.92,-0.72 7.22,-2.68 7.74,-3.53c0.61,-0.99 1.26,-0.5 1.26,0.95zm-5.26,-61.75c4.03,-0.99 5.26,-1.85 5.26,-3.7c0,-1.74 -0.23,-1.77 -4.21,-0.46c-4.44,1.46 -8.24,1.98 -16.91,2.31l-7.88,0.31l0,1.67l0,1.68l3.68,0c5.75,0 16.76,-0.99 20.06,-1.81zm5.26,28.22l0,28.42l-1.14,1.7c-2.67,3.96 -8.61,5.54 -20.01,5.33l-7.6,-0.13l-0.13,-30.05l-0.13,-30.05l2.63,-0.31c1.45,-0.17 4.88,-0.32 7.63,-0.32c5.56,-0.01 12.95,-1.01 16,-2.17c1.1,-0.42 2.17,-0.78 2.38,-0.8c0.2,-0.02 0.37,12.75 0.37,28.38zm-32.25,65.06c0.67,0.55 0.75,-6.55 0.75,-63.42c0,-35.22 -0.06,-64.04 -0.13,-64.04c-0.07,0 -0.41,0.44 -0.75,0.99c-0.49,0.78 -0.62,14.6 -0.62,63.42c0,54.88 0.09,62.5 0.75,63.05zm-3.25,-9c0,1.67 -0.17,2 -1,2c-0.55,0 -1,-0.11 -1,-0.23c0,-0.37 1.67,-3.77 1.84,-3.77c0.09,0 0.16,0.9 0.16,2zm-0.04,-106.22l0.02,-2.12c0.02,-1.8 -0.13,-2.13 -0.98,-2.13c-0.05,0 -0.11,0 -0.16,0c-0.39,0 -0.63,0 -0.72,0.12c-0.14,0.18 0.1,0.65 0.71,1.86l0.15,0.31l0.98,1.96zm-589.96,107.98c0,0.13 -0.45,0.24 -1,0.24c-0.82,0 -1,-0.33 -1,-1.88l0,-1.87l1,1.64c0.55,0.9 1,1.74 1,1.87zm-2,-110.39c0,2.06 0.05,2.05 1.2,-0.21c0.8,-1.57 0.79,-1.63 -0.19,-1.63c-0.83,0 -1.01,0.33 -1.01,1.84z" fill="black" fill-rule="evenodd" id="svg_1"/>
 </g>
</svg>