<?xml version="1.0"?>
<svg width="342" height="24" xmlns="http://www.w3.org/2000/svg" xmlns:svg="http://www.w3.org/2000/svg">
 <g class="layer">
  <title>Layer 1</title>
  <path clip-rule="evenodd" d="m8.6,1.08c0,1.48 -3.43,4.62 -6.21,5.68l-2.28,0.87l-0.13,162.26l-0.13,162.26l-1.02,1.74c-0.56,0.97 -1.52,1.98 -2.12,2.25c-0.99,0.44 -1.11,0.87 -1.11,3.88c0,4.16 1.67,12.13 3.3,15.67c1.03,2.27 1.2,3.39 1.2,8.1l0,5.47l1.39,0.28c0.77,0.15 2.51,1.02 3.88,1.93c1.93,1.29 2.58,2.08 2.94,3.54l0.47,1.87l161.82,0l161.82,0l0.47,-1.87c0.36,-1.46 1.01,-2.25 2.94,-3.54c1.37,-0.91 3.11,-1.78 3.88,-1.93l1.39,-0.28l0,-5.56c0.01,-4.07 0.22,-5.96 0.79,-7.06c1.67,-3.2 3.29,-10.02 3.56,-15c0.26,-4.87 0.24,-5.01 -0.9,-5.5c-0.64,-0.27 -1.62,-1.28 -2.18,-2.25l-1.02,-1.74l-0.13,-162.26l-0.13,-162.26l-2.28,-0.87c-2.78,-1.06 -6.21,-4.2 -6.21,-5.68l0,-1.08l-162,0l-162,0l0,1.08zm325.32,11.12c-2.88,-3.96 -6.39,-7.01 -10.07,-8.77l-3,-1.43l-150.25,0l-150.25,0.01l-2.72,1.27c-3.54,1.64 -7.6,5.14 -10.34,8.91l-2.19,3.01l-0.01,157.22c0,99.33 -0.19,159.93 -0.5,164.56c-0.28,4.03 -0.83,9.66 -1.24,12.5c-1.11,7.83 -1.01,9.34 0.79,12.06c2.65,3.99 5.82,7.16 10.1,10.06l4.11,2.79l152.25,0l152.25,0l4.11,-2.79c4.28,-2.9 7.45,-6.07 10.1,-10.06c1.8,-2.72 1.9,-4.23 0.79,-12.06c-0.41,-2.84 -0.96,-8.47 -1.24,-12.5c-0.31,-4.63 -0.5,-65.23 -0.5,-164.56l-0.01,-157.22l-2.18,-3zm-320.07,-9.07c-3.12,2.29 -6.47,5.74 -8.82,9.07l-2.43,3.45l0,-3.2l0,-3.2l2.84,-1.48c2,-1.05 3.21,-2.11 4.12,-3.61c1.21,-2 1.43,-2.13 3.54,-2.13l2.25,0l-1.5,1.1zm-10.61,340.76c0.31,-1.76 0.56,-55.96 0.68,-150.2c0.23,-169.57 0.2,-176.98 -0.69,-175.02c-0.5,1.09 -0.62,34.98 -0.56,164.67c0.05,109.49 0.23,162.4 0.57,160.55zm327.64,-340.8c0.48,1.53 3.29,4.06 5.7,5.15l2.02,0.91l0,3.25l0,3.25l-2.43,-3.45c-2.35,-3.33 -5.7,-6.78 -8.82,-9.07l-1.5,-1.1l2.34,-0.01c1.98,-0.02 2.4,0.15 2.69,1.07zm7.08,340.8c0.34,1.85 0.52,-50.93 0.57,-160.73c0.06,-143.63 -0.02,-163.59 -0.67,-164.45c-0.65,-0.85 -0.72,17.9 -0.57,160.73c0.12,103.94 0.36,162.69 0.67,164.45zm-337.91,0.63l-0.05,8.62l-0.98,-3c-0.54,-1.65 -1.21,-4.96 -1.5,-7.35l-0.53,-4.35l1.43,-1.26c0.79,-0.69 1.49,-1.26 1.56,-1.27c0.06,-0.01 0.1,3.86 0.07,8.61zm11.73,27.68c-1.61,-1.2 -3.73,-3.06 -4.72,-4.13c-0.98,-1.06 -2.38,-2.68 -3.12,-3.6l-1.34,-1.66l0,2.28c0,2.22 0.06,2.31 2.42,3.5c2.31,1.17 5.58,4.28 5.58,5.31c0,0.27 0.93,0.48 2.05,0.48l2.06,0l-2.93,-2.18zm332.03,-30.56c-0.26,3.22 -2.06,11.25 -2.52,11.25c-0.1,0 -0.19,-3.84 -0.19,-8.54l0,-8.53l1.5,1.16c1.47,1.14 1.49,1.23 1.21,4.66zm-7.63,26.95c2.35,-1.19 2.42,-1.29 2.42,-3.46c0,-1.24 -0.11,-2.24 -0.25,-2.24c-0.14,0 -0.25,0.17 -0.25,0.37c-0.01,0.85 -5.9,6.91 -8.7,8.94l-3,2.18l2.1,0c1.16,0 2.1,-0.21 2.1,-0.48c0,-1.03 3.27,-4.14 5.58,-5.31z" fill="black" fill-rule="evenodd" id="svg_1"/>
 </g>
</svg>