<?xml version="1.0"?>
<svg width="150" height="22" xmlns="http://www.w3.org/2000/svg" xmlns:svg="http://www.w3.org/2000/svg">
 <g class="layer">
  <title>Layer 1</title>
  <path clip-rule="evenodd" d="m4.68,-67.48l-4.68,4.59l0,37.56l0,37.55l4.63,4.59l4.62,4.59l65.51,0l65.51,0l4.61,-4.63l4.62,-4.64l0,-37.24l0,-37.23l-4.88,-4.87l-4.89,-4.86l-65.18,0l-65.18,0l-4.69,4.59zm135.55,4.01c-1.14,-1.32 -3.22,-2.79 -5.81,-4.08l-4.04,-2.02l-55.56,0.01l-55.57,0.01l-2.8,1.15c-3.44,1.41 -5.24,2.67 -7.62,5.31l-1.83,2.02l0,36.09l0,36.09l2.75,2.6c1.51,1.43 3.81,3.12 5.12,3.77l2.38,1.17l56.85,0.13l56.84,0.13l2.78,-1.23c1.53,-0.67 4.02,-2.4 5.53,-3.82l2.75,-2.6l0,-36.33l0,-36.33l-1.77,-2.07zm2.68,-1.94l4.14,4.16l-0.15,3.21l-0.15,3.21l-1.63,-3.18c-2.18,-4.27 -4.98,-7.49 -8.06,-9.31c-1.4,-0.83 -2.54,-1.67 -2.55,-1.88c-0.01,-0.2 0.95,-0.37 2.13,-0.37c2.01,0 2.37,0.24 6.27,4.16zm4.09,40.07c0,-23.32 -0.05,-24.8 -1.01,-27.81l-0.14,-0.45c-0.74,-2.35 -1.25,-3.94 -1.59,-3.91c-0.73,0.08 -0.73,7.39 -0.72,30.13l0,2.04l0,2.05c-0.01,22.74 -0.01,30.05 0.72,30.12c0.34,0.03 0.85,-1.56 1.59,-3.91l0.14,-0.44c0.96,-3.01 1.01,-4.49 1.01,-27.82zm-132,-44c0,0.12 -1.01,0.81 -2.24,1.53c-3.08,1.81 -6.9,6.13 -8.7,9.86l-1.51,3.12l-0.02,-3.24l-0.03,-3.23l4.11,-4.14c3.88,-3.89 4.24,-4.13 6.25,-4.13c1.18,0 2.14,0.1 2.14,0.23zm-9.46,77.24c0.28,0 0.46,-13.13 0.46,-33.24c0,-18.28 -0.11,-33.24 -0.24,-33.24c-0.38,0 -1.56,2.54 -2.46,5.29c-0.73,2.27 -0.81,5.45 -0.69,29c0.14,26.35 0.14,26.45 1.3,29.32c0.64,1.58 1.37,2.87 1.63,2.87zm3.23,6.32c1.4,1.41 3.43,3.03 4.51,3.6l1.97,1.03l-2.49,0.03c-2.44,0.02 -2.56,-0.05 -6.37,-3.84l-3.89,-3.87l0.01,-3.26l0.02,-3.26l1.85,3.5c1.02,1.93 3,4.66 4.39,6.07zm127.69,4.59c2.18,0.15 2.29,0.08 6.41,-4.03l4.18,-4.19l-0.15,-3.09l-0.15,-3.09l-1.87,3.64c-2.03,3.96 -5.95,8.27 -8.82,9.7l-1.81,0.9l2.21,0.16z" fill="black" fill-rule="evenodd" id="svg_1"/>
 </g>
</svg>