<?xml version="1.0"?>
<svg width="342" height="24" xmlns="http://www.w3.org/2000/svg" xmlns:svg="http://www.w3.org/2000/svg">
 <g class="layer">
  <title>Layer 1</title>
  <path clip-rule="evenodd" d="m0.14,293.24l4.87,4.88l4.86,4.88l160.75,0l160.75,0l4.89,-4.86l4.88,-4.87l0,-160.23l0,-160.24l-4.82,-4.85l-4.81,-4.84l-160.8,0l-160.8,0l-4.88,4.86l-4.89,4.86l0,42.52l0,42.51l-4.37,3.75l-4.38,3.74l-0.14,3.56l-0.15,3.56l4.52,3.83l4.52,3.84l-0.04,13.58l-0.03,13.59l-4.47,3.66l-4.46,3.67l0.03,3.58l0.02,3.59l4.48,3.7l4.47,3.71l0,13.54l-0.01,13.54l-4.49,3.73l-4.5,3.73l0,3.57l0,3.56l4.47,3.7l4.47,3.7l0.03,13.52l0.03,13.52l-4.5,3.87l-4.5,3.86l0,3.45l0,3.44l4.5,3.85l4.5,3.85l-0.03,13.56l-0.03,13.56l-4.47,3.66l-4.47,3.66l0.01,3.59l0,3.58l4.5,3.73l4.49,3.74l0,8.25l0,8.26zm6,-8.98c0,-3.98 -0.13,-4.75 -0.78,-4.75c-0.57,0 -0.69,-0.29 -0.46,-1.04c0.32,-1.01 -0.89,-2.96 -1.84,-2.96c-0.67,0 -0.49,5.13 0.27,7.54c0.87,2.76 2.25,5.95 2.57,5.95c0.13,0 0.24,-2.13 0.24,-4.74zm-1.96,3.95c2.35,4.65 4.76,7.58 8.04,9.77l3.04,2.02l-2.45,0c-2.38,0 -2.54,-0.09 -6.31,-3.88l-3.86,-3.89l0.02,-3.49l0.02,-3.48l1.5,2.95zm23.46,-3.53c0,-0.27 -8.52,-10.93 -12.86,-16.1l-1.1,-1.32l-0.01,1.25c-0.02,1.7 11.66,16.5 13.01,16.5c0.53,0 0.96,-0.15 0.96,-0.33zm0,-37.91c0,0.28 -1.73,2.44 -8.96,11.18c-2.54,3.06 -4.71,5.56 -4.83,5.56c-0.11,0 -0.21,-0.45 -0.21,-1c0,-0.55 2.65,-4.36 5.88,-8.46c4.35,-5.53 6.16,-7.47 7,-7.49c0.61,-0.02 1.12,0.07 1.12,0.21zm56.53,29.41c3.97,-4.85 7.5,-9.22 7.84,-9.69c0.66,-0.93 0.27,-1.47 -10.74,-14.85l-4.21,-5.12l-23.83,0l-23.84,0l-7,8.58c-3.85,4.72 -7.31,9.07 -7.7,9.68c-0.66,1.04 -0.4,1.47 4.5,7.49c2.86,3.51 6.4,7.82 7.86,9.56l2.65,3.18l23.63,0l23.62,0l7.22,-8.83zm-79.21,-23.43c0.16,0.43 -0.08,1.33 -0.52,2.02c-0.45,0.68 -1.04,1.24 -1.31,1.24c-0.31,0 -0.49,-5.48 -0.49,-14.74c0,-12.62 0.11,-14.75 0.73,-14.75c0.99,0 1.9,1.81 1.52,3.02c-0.22,0.69 -0.08,0.98 0.47,0.98c0.68,0 0.78,1.3 0.78,10.45c0,8.77 -0.12,10.48 -0.74,10.72c-0.42,0.17 -0.61,0.62 -0.44,1.06zm81.48,24.71c5.74,-7.27 6.83,-8.95 5.79,-8.95c-0.58,0 -13.09,15.29 -13.09,16c0,1.59 2.01,-0.35 7.3,-7.05zm0.18,-23.39c3.31,4.15 6.02,7.87 6.02,8.25c0,0.38 -0.17,0.69 -0.37,0.68c-0.21,0 -2.52,-2.64 -5.13,-5.85c-0.52,-0.64 -1.01,-1.25 -1.47,-1.81c-5.73,-7.06 -6.9,-8.49 -6.67,-8.77c0.06,-0.07 0.21,-0.06 0.39,-0.06c0.03,0 0.06,0.01 0.09,0.01c0.03,0 0.06,0 0.1,0c0.72,0 2.81,2.24 7.04,7.55zm239.52,44.59c1.49,-0.74 3.78,-2.39 5.1,-3.66l2.4,-2.31l0,-159.64l0,-159.63l-2.42,-2.33c-1.33,-1.28 -3.75,-2.98 -5.37,-3.78l-2.96,-1.45l-152.25,0l-152.25,0l-2.82,1.32c-1.56,0.73 -3.97,2.43 -5.38,3.78l-2.55,2.46l0,40.83l0,40.83l5.63,-0.03l5.62,-0.02l2.96,-3.73l2.96,-3.72l28.29,0.01l28.29,0l6.63,8.31l6.62,8.31l-0.02,4.81l-0.02,4.8l-6.35,8.11l-6.36,8.1l-28.75,0l-28.75,0l-2.7,-3.48l-2.7,-3.48l-5.67,0l-5.68,0l0,10.5l0,10.49l5.68,0l5.67,0l2.7,-3.48l2.7,-3.48l28.75,0.01l28.75,0.01l4.19,5.44c2.3,3 4.55,5.85 5,6.35c3.3,3.66 3.56,4.35 3.56,9.3l0,4.72l-2.51,3.19c-1.39,1.75 -4.36,5.49 -6.6,8.31l-4.08,5.12l-28.36,0l-28.37,0l-2.91,-3.73l-2.92,-3.72l-5.62,-0.02l-5.63,-0.03l0,10.75l0,10.75l5.5,0l5.49,0l3.08,-3.75l3.07,-3.75l28.35,0l28.34,0l6.59,8.23l6.58,8.24l0,4.77l0,4.77l-6.53,8.24l-6.54,8.24l-28.43,0l-28.42,0l-2.94,-3.63l-2.94,-3.62l-5.6,-0.14l-5.6,-0.15l0,10.77l0,10.76l5.68,0l5.68,0l2.87,-3.75l2.88,-3.75l28.32,0l28.32,0.01l6.63,8.34l6.62,8.35l0,4.77l0,4.78l-6.38,8.1l-6.37,8.1l-28.75,0.02l-28.76,0.02l-2.67,-3.5l-2.67,-3.5l-5.7,0l-5.7,0l0,10.5l0,10.5l5.68,0l5.67,0l2.7,-3.48l2.7,-3.48l28.58,-0.02l28.58,-0.02l6.55,8.19l6.54,8.19l0,4.79l0,4.8l-6.59,8.26l-6.6,8.26l-28.36,0l-28.37,0l-2.91,-3.73l-2.92,-3.73l-5.62,-0.02l-5.63,-0.02l0,6.46l0,6.45l2.37,2.37c1.3,1.3 3.72,3 5.37,3.79l3.01,1.42l152.53,0l152.53,0l2.69,-1.34zm-246.42,-66.69c-1.01,1.2 -2.01,2.5 -2.23,2.87c-0.33,0.56 -4.65,0.68 -24.3,0.68l-23.9,0l-5.53,-6.77c-5.52,-6.78 -5.52,-6.78 -5.02,-8.63c0.28,-1.01 0.82,-2.02 1.2,-2.24c0.98,-0.56 0.87,-1.73 -0.3,-3.22c-1.91,-2.42 -1.42,-3.61 4.33,-10.63l5.32,-6.5l23.81,0l23.81,0l5.39,6.63c5.12,6.27 5.39,6.71 5.08,8.37c-0.18,0.96 -0.64,2.1 -1.03,2.54c-0.9,1 -0.9,1.92 0,2.92c0.39,0.43 0.86,1.59 1.04,2.57c0.02,0.09 0.03,0.18 0.05,0.27c0.05,0.24 0.09,0.45 0.1,0.65c0.03,1.08 -0.9,2.19 -6.63,9.06c-0.38,0.45 -0.77,0.93 -1.19,1.43zm-4.05,-46.19c3.09,-1.09 5.45,-3.07 6.5,-5.45c0.51,-1.13 1.62,-2.58 2.47,-3.21c2.57,-1.9 3.48,-3.82 2.85,-5.99c-0.29,-1.01 -0.83,-2.19 -1.19,-2.63c-0.84,-1.01 -0.83,-1.44 0.09,-2.45c0.41,-0.46 0.89,-1.89 1.07,-3.19c0.32,-2.33 0.29,-2.39 -2.08,-4.61c-1.33,-1.23 -2.8,-3.1 -3.27,-4.15c-1.03,-2.31 -3.37,-4.17 -6.61,-5.25c-3.34,-1.12 -40.88,-1.2 -44.55,-0.09c-3.22,0.96 -5.74,3.01 -6.88,5.58c-0.52,1.19 -1.64,2.65 -2.49,3.25c-2.39,1.7 -3.39,3.69 -2.92,5.77c0.21,0.97 0.75,2.15 1.19,2.63c0.97,1.08 0.99,1.5 0.09,2.51c-0.38,0.44 -0.92,1.62 -1.2,2.62c-0.58,2.16 0.36,4.12 2.9,6c0.85,0.63 1.97,2.08 2.47,3.21c1.02,2.31 3.4,4.35 6.33,5.42c2.97,1.09 42.15,1.11 45.23,0.03zm2.69,-52.4c-1.9,-0.26 -2.2,-0.13 -3.99,1.69l-1.93,1.98l-19.3,0l-19.3,0l-1.93,-1.98c-1.78,-1.82 -2.09,-1.95 -3.98,-1.7l-2.04,0.29l-3.75,-4.84c-4.12,-5.33 -4.44,-6.57 -2.22,-8.66c1.49,-1.39 1.56,-2.81 0.21,-3.76c-0.56,-0.39 -1.22,-1.41 -1.47,-2.26c-0.41,-1.43 -0.18,-1.89 2.98,-5.97c4.49,-5.8 4.68,-5.95 6.67,-5.19c1.54,0.59 1.64,0.54 3.51,-1.65l1.93,-2.27l19.39,0l19.4,0l1.83,2.2c1.79,2.14 1.87,2.18 3.63,1.64c1.73,-0.53 1.85,-0.48 3.52,1.43c0.95,1.09 2.74,3.29 3.97,4.88c2.03,2.62 2.22,3.09 1.91,4.73c-0.19,1.01 -0.77,2.14 -1.3,2.5c-1.21,0.85 -1.24,2.93 -0.05,3.57c0.5,0.26 1.14,1.25 1.43,2.2c0.51,1.66 0.41,1.85 -3.27,6.58l-3.79,4.87l-2.06,-0.28zm-21.18,-46.5c1.32,-1.68 3.48,-1.94 8.41,-1.01c4.85,0.92 10.26,0.72 13.07,-0.48c2.41,-1.02 4.22,-2.93 5.77,-6.11c1.13,-2.31 1.26,-3.07 1.01,-5.81c-0.38,-4.03 -0.38,-5.06 0,-8.35c0.37,-3.25 -0.24,-5.53 -2.35,-8.71c-2.44,-3.69 -4.57,-4.57 -10.95,-4.54c-2.89,0.01 -6.75,0.21 -8.58,0.43c-4.1,0.5 -5.79,0.12 -6.52,-1.49c-0.51,-1.13 -0.83,-1.23 -3.9,-1.23c-3.07,0 -3.38,0.1 -3.9,1.23c-0.7,1.54 -2.23,1.95 -5.95,1.57c-1.59,-0.16 -5.26,-0.41 -8.15,-0.56c-5.01,-0.25 -5.37,-0.2 -7.98,1.12c-3.5,1.78 -5.66,4.85 -6.49,9.22c-0.49,2.62 -0.47,3.46 0.13,4.87c0.63,1.5 0.63,1.99 -0.01,3.87c-0.59,1.71 -0.62,2.67 -0.19,4.68c2.03,9.46 8.16,12.48 20.68,10.18c4.79,-0.87 6.89,-0.51 7.9,1.38c0.41,0.76 1.09,0.93 3.78,0.93c2.86,0 3.41,-0.16 4.22,-1.19zm-43.2,-9.98c1.28,1.61 2.55,3.2 2.81,3.54c0.37,0.5 -0.66,0.63 -4.78,0.63c-5.19,0 -5.26,-0.02 -5.57,-1.24c-0.45,-1.8 -2.41,-2.91 -4.67,-2.65c-1.68,0.2 -2.24,-0.07 -5.25,-2.5l-3.38,-2.72l0,-2.92l0,-2.92l3.38,-2.7c3.02,-2.42 3.57,-2.68 5.25,-2.47c2.26,0.28 4.21,-0.82 4.67,-2.63c0.31,-1.23 0.38,-1.24 5.57,-1.24c4.13,0 5.15,0.13 4.77,0.62c-0.27,0.34 -1.53,1.93 -2.81,3.52l-2.33,2.89l0,4.94l0,4.93l2.34,2.92zm3.16,53.34c0,-0.18 -1.24,-1.86 -2.75,-3.73l-2.75,-3.4l0,-4.87l0,-4.87l2.34,-3.03c1.29,-1.66 2.55,-3.31 2.81,-3.65c0.37,-0.49 -0.67,-0.63 -4.84,-0.63c-4.29,0 -5.31,0.14 -5.31,0.72c0,1.52 -2.21,3.38 -4.02,3.38c-0.95,-0.01 -1.97,-0.08 -2.27,-0.18c-0.3,-0.09 -2.04,1.07 -3.87,2.58l-3.33,2.75l0,2.81l-0.01,2.82l3.24,2.76c2.98,2.55 3.39,2.74 5.18,2.5c2.47,-0.33 3.98,0.49 4.88,2.64l0.71,1.71l5,0c2.74,0 4.99,-0.14 4.99,-0.31zm-3.08,44.98c1.33,1.69 2.58,3.35 2.78,3.69c0.28,0.49 -0.78,0.63 -4.62,0.63l-4.98,0l-1.04,-1.76c-1.19,-2.01 -2.91,-2.84 -5.03,-2.42c-1.24,0.25 -1.96,-0.11 -4.71,-2.39l-3.25,-2.68l-0.03,-2.83l-0.04,-2.83l3.23,-2.84c2.89,-2.53 3.4,-2.8 4.78,-2.49c2.18,0.48 4.19,-0.51 5.15,-2.53l0.83,-1.72l5,0c2.76,0 5.01,0.12 5.01,0.27c0,0.15 -1.24,1.81 -2.75,3.68l-2.75,3.41l0,4.87l0,4.87l2.42,3.07zm2.73,52.68c-0.26,-0.35 -1.53,-1.94 -2.81,-3.55l-2.34,-2.92l0,-5.02l0,-5.02l2.13,-2.56c0.37,-0.43 0.7,-0.82 0.99,-1.17c1.36,-1.6 2.03,-2.39 1.85,-2.78c-0.18,-0.38 -1.17,-0.37 -3.14,-0.36c-0.44,0.01 -0.92,0.01 -1.46,0.01c-5.19,0 -5.26,0.02 -5.57,1.24c-0.47,1.85 -2.44,2.94 -4.76,2.63c-1.79,-0.24 -2.21,-0.04 -5.24,2.51l-3.3,2.76l0,2.82c0,2.75 0.06,2.88 2.36,4.8l0.06,0.06c3.38,2.84 4.17,3.5 4.92,3.45c0.23,-0.02 0.45,-0.1 0.75,-0.21l0.02,-0.01c1.76,-0.67 4.34,0.58 5.04,2.44l0.57,1.5l5.2,0c4.08,0 5.1,-0.13 4.73,-0.62zm-11.9,-24.39c0.17,0.54 0.06,1.44 -0.24,2c-0.3,0.56 -0.87,1.02 -1.28,1.02c-0.62,0 -0.73,-2.13 -0.73,-14.75c0,-9.26 0.18,-14.74 0.49,-14.74c0.81,0 2.06,2.3 1.72,3.18c-0.21,0.55 -0.05,0.82 0.49,0.82c0.71,0 0.8,1.21 0.8,10.74c0,9.43 -0.09,10.75 -0.78,10.75c-0.55,0 -0.69,0.29 -0.47,0.98zm-0.53,-46.93c0.56,-0.61 0.75,-1.34 0.54,-2c-0.23,-0.74 -0.11,-1.03 0.46,-1.03c0.69,0 0.78,-1.33 0.78,-10.75c0,-9.42 -0.09,-10.75 -0.78,-10.75c-0.55,0 -0.69,-0.29 -0.47,-0.98c0.38,-1.21 -0.53,-3.01 -1.52,-3.01c-0.62,0 -0.73,2.12 -0.73,14.74c0,8.11 0.19,14.75 0.42,14.75c0.24,0 0.82,-0.44 1.3,-0.97zm0.45,-51.44c0.15,0.6 0.07,1.47 -0.18,1.94c-0.25,0.48 -0.8,1 -1.22,1.16c-0.68,0.26 -0.77,-1.46 -0.77,-14.71c0,-14.53 0.03,-14.98 0.94,-14.49c1.16,0.62 1.68,1.87 1.29,3.1c-0.2,0.64 -0.05,0.93 0.49,0.93c0.68,0 0.78,1.3 0.78,10.5c0,9.33 -0.09,10.49 -0.81,10.49c-0.58,0 -0.73,0.3 -0.52,1.08zm-0.16,-47.08c0.3,-0.56 0.41,-1.46 0.24,-2c-0.22,-0.69 -0.08,-0.98 0.47,-0.98c0.7,0 0.78,-3.95 0.76,-39.37c0,-1.72 0,-3.37 0,-4.95c-0.01,-25.26 -0.01,-32.86 -0.77,-32.94c-0.32,-0.03 -0.79,1.33 -1.45,3.28c-0.1,0.29 -0.2,0.58 -0.31,0.89c-0.9,2.62 -0.95,4.69 -0.95,39.93c0,32.3 0.1,37.16 0.73,37.16c0.41,0 0.98,-0.46 1.28,-1.02zm8.87,-90.99c-2.56,1.12 -7.1,6.1 -8.9,9.74c-0.89,1.81 -1.7,3.29 -1.8,3.29c-0.1,0 -0.18,-1.41 -0.18,-3.13l0,-3.14l4.14,-4.11c3.87,-3.85 4.27,-4.11 6.25,-4.11c2.53,0 2.7,0.5 0.49,1.46zm320.99,2.66c-4.1,-4.09 -4.24,-4.19 -6.35,-4.03l-2.16,0.16l2.49,1.61c3.47,2.24 6.36,5.52 8.28,9.41l1.62,3.31l0.15,-3.14l0.15,-3.14l-4.18,-4.18zm3.88,313.53l-1.35,2.87c-0.74,1.58 -1.47,2.87 -1.62,2.87c-0.15,0 -0.27,-70.34 -0.26,-156.32c0,-8.85 0,-17.2 0,-25.09l0,-0.01c0,-109.3 0.01,-129.57 1.11,-129.63c0.26,-0.01 0.56,1.02 0.94,2.29l0,0c0.13,0.4 0.25,0.83 0.39,1.25l1.07,3.36l-0.14,149.2l-0.14,149.21zm-3.63,12.88l3.88,-3.86l-0.01,-3.26l-0.02,-3.26l-1.86,3.49c-2.03,3.83 -6.37,8.52 -9.11,9.87l-1.75,0.86l2.49,0.01c2.44,0.01 2.57,-0.06 6.38,-3.85zm-322.72,-24.94c0.22,0.14 1.48,1.61 2.79,3.28l2.38,3.03l-5.16,0l-5.16,0l-0.68,-1.54c-0.8,-1.79 -2.65,-2.65 -4.95,-2.28c-1.43,0.23 -2.04,-0.09 -4.88,-2.49l-3.24,-2.75l0.01,-2.84l0,-2.85l3.28,-2.72c3.07,-2.54 3.43,-2.71 5.68,-2.59c2.1,0.12 2.54,-0.04 3.47,-1.22c0.58,-0.74 1.06,-1.66 1.06,-2.03c0,-0.54 1.15,-0.68 5.25,-0.68c2.89,0 5.25,0.08 5.25,0.18c0,0.1 -1.23,1.73 -2.75,3.62l-2.74,3.44l-0.01,5.1c0,2.8 0.18,5.2 0.4,5.34zm15.3,-36.3c-0.36,-0.61 -4.16,-5.37 -4.7,-5.88c-0.14,-0.13 -1.24,-1.43 -2.43,-2.87c-1.19,-1.44 -2.37,-2.63 -2.61,-2.63c-1.19,0 -0.12,1.97 3.67,6.74c3.05,3.85 4.42,5.21 5.28,5.23c0.78,0.02 1.03,-0.17 0.79,-0.59zm-9.79,-17.34c0.54,0.87 0.51,1.45 -0.17,3.5c-0.45,1.36 -0.98,2.46 -1.18,2.46c-0.21,0 -0.86,-0.66 -1.46,-1.47c-0.93,-1.25 -1.1,-2.13 -1.08,-5.63c0.02,-3.66 0.16,-4.32 1.26,-5.64c1.41,-1.71 1.83,-1.42 2.74,1.86c0.38,1.38 0.35,2.11 -0.12,2.87c-0.52,0.82 -0.52,1.21 0.01,2.05zm5.17,-13.68c2.25,-2.8 4.3,-5.38 4.57,-5.72c0.35,-0.46 0.16,-0.62 -0.71,-0.61c-0.9,0 -2.19,1.27 -5.36,5.25c-2.68,3.37 -4.07,5.53 -3.88,6.02c0.42,1.11 0.84,0.72 5.38,-4.94zm69.92,12.65c0,3 -0.21,3.99 -1.12,5.34c-0.62,0.9 -1.28,1.65 -1.46,1.65c-0.19,0 -0.73,-1.02 -1.2,-2.26c-0.74,-1.93 -0.77,-2.45 -0.21,-3.5c0.54,-1.01 0.54,-1.45 0.02,-2.43c-0.53,-0.99 -0.52,-1.58 0.07,-3.35c0.39,-1.17 0.92,-2.21 1.18,-2.29c0.26,-0.08 0.98,0.59 1.6,1.5c0.91,1.34 1.12,2.34 1.12,5.34zm-7.64,13.57c3.9,-4.81 4.55,-6.06 3.36,-6.4c-0.41,-0.11 -9.17,10.29 -9.65,11.46c-0.1,0.25 0.33,0.37 0.96,0.28c0.74,-0.11 2.61,-1.99 5.33,-5.34zm0.02,-27.31c2.27,2.86 4.12,5.43 4.12,5.69c0,1.64 -1.5,0.42 -5.72,-4.66c-2.63,-3.15 -4.78,-5.85 -4.78,-6.01c0,-0.15 0.51,-0.26 1.13,-0.25c0.81,0.02 2.26,1.46 5.25,5.23zm-58.43,-17.88c-1.17,-0.89 -2.61,-2.52 -3.2,-3.62c-0.9,-1.67 -5.46,-6.75 -6.06,-6.75c-0.84,0 0.45,2.09 4.06,6.65c3.75,4.72 4.43,5.35 5.79,5.35l1.54,0l-2.13,-1.63zm-9,-16.68c0.63,0.76 0.52,1.67 -0.54,4.44c-0.66,1.71 -1.06,1.72 -2.37,0.05c-0.86,-1.08 -1.04,-2.02 -1.04,-5.37c0.01,-3.57 0.15,-4.23 1.24,-5.56c1.04,-1.26 1.32,-1.38 1.75,-0.75c1.08,1.59 1.57,4.43 0.93,5.45c-0.48,0.77 -0.48,1.13 0.03,1.74zm2.35,-10.56c1.37,-1.3 2.79,-3.08 3.14,-3.94c0.72,-1.77 2.6,-3.68 4.81,-4.87l1.5,-0.81l-1.97,0.12c-1.87,0.12 -2.21,0.42 -6.11,5.38c-3.47,4.41 -4.76,6.49 -4.02,6.49c0.07,0 1.27,-1.06 2.65,-2.37zm72.69,9.68c0.01,3.36 -0.17,4.28 -1.03,5.37c-0.56,0.73 -1.23,1.32 -1.48,1.32c-1.19,0 -2.36,-4.68 -1.45,-5.79c0.5,-0.59 0.49,-0.98 -0.01,-1.92c-0.53,-0.99 -0.49,-1.63 0.24,-3.82l0.88,-2.64l1.42,1.71c1.29,1.57 1.42,2.06 1.43,5.77zm-4.49,-0.06c0,-0.41 -0.34,-0.75 -0.75,-0.75c-0.41,0 -0.75,0.34 -0.75,0.75c0,0.42 0.34,0.75 0.75,0.75c0.41,0 0.75,-0.33 0.75,-0.75zm-69.25,-0.75c0.41,0 0.75,0.34 0.75,0.75c0,0.42 -0.34,0.75 -0.75,0.75c-0.41,0 -0.75,-0.33 -0.75,-0.75c0,-0.41 0.34,-0.75 0.75,-0.75zm66.11,14.39c2.32,-2.95 4.1,-5.55 3.95,-5.79c-0.41,-0.66 -4.92,3.88 -6.03,6.06c-0.91,1.78 -2.29,3.19 -4.59,4.71c-0.83,0.55 -0.75,0.6 0.76,0.5c1.51,-0.11 2.15,-0.71 5.91,-5.48zm-6.22,-32.88c1.64,0 2.05,0.37 6.12,5.54c2.4,3.04 4.17,5.69 3.93,5.87c-0.64,0.49 -4.77,-3.75 -5.97,-6.13c-0.61,-1.22 -1.99,-2.68 -3.43,-3.66l-2.4,-1.62l1.75,0zm-46.64,-11.41c0,-0.23 -0.52,-0.9 -1.16,-1.51c-0.89,-0.82 -1.53,-1.01 -2.69,-0.78c-2.2,0.44 -3.2,-0.3 -6.92,-5.05c-2.95,-3.78 -4.23,-4.74 -4.23,-3.18c0,0.27 1.84,2.85 4.1,5.71l4.09,5.22l3.41,0c1.87,0 3.4,-0.18 3.4,-0.41zm-17.78,-23.08c1.28,0 2.28,2.1 2.28,4.77c0,2.02 -0.24,2.78 -1.16,3.64c-0.64,0.6 -1.31,0.94 -1.5,0.76c-0.19,-0.19 -0.34,-2.33 -0.34,-4.76c0,-3.51 0.15,-4.41 0.72,-4.41zm2.7,10.22c0.32,-0.7 0.58,-1.74 0.58,-2.32c0,-0.84 -0.24,-0.69 -1.26,0.81c-1.15,1.7 -1.27,2.79 -0.29,2.79c0.22,0 0.65,-0.58 0.97,-1.28zm1.25,-6.87c1.01,-0.39 1.95,0.4 1.75,1.45c-0.19,0.96 -1.45,1.5 -2.07,0.88c-0.59,-0.59 -0.39,-2.06 0.32,-2.33zm-1,-3.6c-0.8,-2.36 -1.35,-2.79 -1.87,-1.46c-0.28,0.75 1.51,3.62 2.3,3.68c0.19,0.02 0,-0.98 -0.43,-2.22zm7.96,-11.25l-3.44,4.47c-3.5,4.55 -3.89,4.91 -4.44,4.03c-0.39,-0.64 -0.19,-0.95 4.25,-6.65l3.75,-4.81l3.72,-0.02l3.72,-0.02l-1.44,1.5c-1.19,1.25 -1.83,1.5 -3.78,1.5l-2.34,0zm63.62,8.07c0,-0.32 -1.87,-2.95 -4.16,-5.83l-4.17,-5.24l-3.55,0l-3.56,0l1.44,1.5c1.2,1.25 1.83,1.5 3.78,1.5l2.34,0l3.44,4.48c3.15,4.11 4.44,5.15 4.44,3.59zm1.88,4.09c1.37,-1.38 1.87,-0.29 1.87,4.09c0,2.3 -0.19,4.31 -0.43,4.45c-0.46,0.29 -1.6,-0.83 -2.41,-2.36c-0.64,-1.21 -0.01,-5.2 0.97,-6.18zm0.35,-1.72c0.01,-0.18 -0.29,-0.58 -0.67,-0.89c-0.56,-0.46 -0.85,-0.18 -1.5,1.45c-0.44,1.11 -0.81,2.29 -0.81,2.62c0,0.58 2.94,-2.56 2.98,-3.18zm-4.31,4.41c1.01,-0.39 1.95,0.4 1.75,1.45c-0.19,0.96 -1.45,1.5 -2.07,0.88c-0.59,-0.59 -0.39,-2.06 0.32,-2.33zm4.16,7.37c0.08,-0.26 -0.54,-1.26 -1.37,-2.22c-1.37,-1.58 -1.48,-1.63 -1.17,-0.5c0.72,2.61 1.24,3.57 1.81,3.38c0.32,-0.11 0.65,-0.41 0.73,-0.66zm-1.83,1.82c0,0.27 -1.85,2.83 -4.12,5.7l-4.13,5.22l-3.37,0.01c-1.86,0.01 -3.38,-0.16 -3.38,-0.39c0,-0.23 0.53,-0.91 1.19,-1.53c0.86,-0.81 1.52,-1.02 2.46,-0.79c2.19,0.55 3.28,-0.21 6.91,-4.81c3.12,-3.95 4.44,-4.97 4.44,-3.41zm-69.02,-55.75c0.77,-0.93 0.51,-2.27 -0.58,-2.96c-0.65,-0.4 -1.37,-0.29 -3,0.51l-2.15,1.04l1.75,1.06c2.05,1.25 3.15,1.35 3.98,0.35zm-2.48,-4.84c0,0.52 -0.73,1.23 -1.77,1.72l-0.13,0.06c-1.16,0.56 -1.68,0.8 -1.91,0.64c-0.19,-0.13 -0.19,-0.54 -0.19,-1.27l0,-0.11c0,-1.38 1.74,-4.47 2.52,-4.47c0.45,0 1.48,2.37 1.48,3.43zm-0.55,8.99c0.8,-2.28 0.71,-2.62 -0.9,-3.57c-2.05,-1.21 -2.55,-1.08 -2.55,0.66c0,1.42 1.74,4.48 2.55,4.48c0.19,0 0.6,-0.71 0.9,-1.57zm2.46,-0.55c0.18,4.33 2.26,8.33 6.13,11.81c2.52,2.26 2.54,2.31 1.14,2.28c-1.2,-0.02 -2.08,-0.85 -5.58,-5.26l-4.14,-5.23l0.89,-2.74c0.5,-1.5 1.03,-2.73 1.19,-2.73c0.17,-0.01 0.33,0.84 0.37,1.87zm0,-9.75c0.18,-4.28 2.17,-8.15 6.05,-11.78c1.4,-1.31 2.54,-2.48 2.54,-2.61c0,-0.13 -0.52,-0.23 -1.16,-0.23c-0.89,0 -2.23,1.33 -5.57,5.53l-4.39,5.52l0.77,1.85c0.42,1.02 0.89,2.24 1.04,2.72c0.43,1.34 0.64,1.05 0.72,-1zm28.97,-14c-0.11,0.35 -0.75,0.91 -1.42,1.25c-1.53,0.78 -2.95,0.74 -6.71,-0.2c-1.92,-0.48 -4.56,-0.68 -7.34,-0.56c-3.58,0.16 -4.19,0.08 -3.5,-0.44c1.2,-0.91 19.27,-0.95 18.97,-0.05zm17.02,1.08c2.58,-0.54 5.22,-0.73 8,-0.56c3.57,0.22 4.02,0.16 3.25,-0.43c-1.07,-0.81 -19.15,-1.04 -19.15,-0.24c0,0.69 2.07,2.03 3.13,2.03c0.5,0 2.65,-0.36 4.77,-0.8zm23.69,9.38l-1.1,2.58c-1.43,3.35 -1.49,3.38 -1.49,0.94c0,-3.68 -1.83,-7.48 -5.32,-11.06c-1.75,-1.79 -3.18,-3.32 -3.18,-3.4c0,-0.07 0.51,-0.14 1.13,-0.13c0.83,0 2.28,1.46 5.54,5.54l4.42,5.53zm3.4,5.79c-0.02,-1.75 -2.26,-4.84 -2.95,-4.07c-0.22,0.25 -0.65,1.18 -0.94,2.07c-0.53,1.57 -0.48,1.66 1.3,2.6c2.48,1.31 2.6,1.28 2.59,-0.6zm-1.49,2.49c0,0.21 -0.7,0.78 -1.54,1.26c-1.87,1.06 -2.65,1.1 -3.44,0.15c-0.77,-0.93 -0.51,-2.27 0.58,-2.95c0.63,-0.4 1.3,-0.32 2.62,0.31c0.98,0.47 1.78,1.02 1.78,1.23zm1.5,2.62c0,-1.75 -0.63,-1.86 -2.88,-0.49l-1.63,1l0.75,1.81c0.42,1 0.77,1.96 0.78,2.13c0,0.17 0.68,-0.42 1.5,-1.32c0.95,-1.05 1.48,-2.17 1.48,-3.13zm-5.82,8.71c-1.3,1.67 -3.17,4.1 -4.15,5.39c-1.31,1.74 -2.13,2.36 -3.11,2.38c-1.27,0.03 -1.18,-0.13 1.52,-2.85c3.29,-3.3 5.06,-6.69 5.55,-10.62c0.25,-2.01 0.44,-2.48 0.71,-1.75c0.21,0.55 0.71,1.77 1.11,2.7c0.74,1.68 0.73,1.71 -1.63,4.75zm-9.93,7.3c0.2,-0.32 -0.99,-0.39 -3.35,-0.2c-2.53,0.21 -4.69,0.06 -7.05,-0.5c-4.33,-1.02 -7.06,-1.02 -8.06,-0.02c-0.44,0.44 -0.79,0.89 -0.79,1c0,0.47 18.96,0.2 19.25,-0.28zm-37.09,-0.7c4.66,-1.1 6.97,-1.04 8.09,0.2c0.9,0.99 0.87,1 -8.64,1c-5.3,0 -9.68,-0.21 -9.84,-0.46c-0.16,-0.28 1.19,-0.36 3.35,-0.2c2.43,0.17 4.75,0 7.04,-0.54z" fill="black" fill-rule="evenodd" id="svg_1"/>
 </g>
</svg>