<?xml version="1.0"?>
<svg width="431" height="50" xmlns="http://www.w3.org/2000/svg" xmlns:svg="http://www.w3.org/2000/svg">
 <g class="layer">
  <title>Layer 1</title>
  <path d="m286,-83.01c-1.56,-0.96 0.25,-5.25 2.72,-6.47c0.84,-0.42 2.21,-0.76 3.03,-0.76c2,-0.02 4.65,1.66 5.3,3.36c0.6,1.56 0.29,4.36 -0.6,5.43c-0.9,1.08 -3.04,-1.02 -2.65,-2.59c0.44,-1.75 -0.63,-3.31 -2.16,-3.12c-1.4,0.16 -1.81,0.72 -2.52,3.4l-0.46,1.75l-0.66,-1.37c-0.78,-1.63 -1.5,-1.8 -1.5,-0.35c0,0.57 -0.23,0.89 -0.5,0.72z" fill="black" id="svg_1"/>
  <path d="m266.21,-75.81c-1.92,-2.11 -0.39,-6.52 2.48,-7.12c1.12,-0.24 5.8,0.13 6.44,0.51c0.2,0.12 0.37,1.12 0.37,2.23c0,1.41 -0.19,1.94 -0.62,1.75c-2.21,-0.91 -4.42,-1.41 -5.09,-1.15c-1.48,0.56 -0.79,1.3 1.95,2.1c3.33,0.96 4.76,2.56 4.76,5.32c0,3.56 -3.48,5.41 -8.5,4.53l-2.25,-0.4l-0.15,-2.91l-0.15,-2.9l1.65,1.23c1.93,1.43 3.87,1.99 4.85,1.39c1.2,-0.75 0.21,-1.9 -2.35,-2.75c-1.37,-0.45 -2.89,-1.27 -3.39,-1.83z" fill="black" id="svg_2"/>
  <path d="m407.22,-79.5c0.35,-1.87 1.08,-2.64 3.12,-3.26c1.43,-0.43 5.63,-0.14 6.25,0.43c0.18,0.18 0.49,1.2 0.69,2.27c0.33,1.79 0.28,1.93 -0.58,1.56c-2.57,-1.08 -4.71,-1.45 -5.25,-0.91c-0.77,0.77 -0.23,1.48 1.42,1.86c2.79,0.65 4.19,1.46 4.9,2.83c2.29,4.42 -1.6,8.1 -7.52,7.11c-2.5,-0.42 -2.5,-0.42 -2.96,-2.79c-0.55,-2.84 -0.24,-3.28 1.51,-2.13c1.89,1.24 3.9,1.73 4.88,1.18c1.23,-0.69 0.58,-1.34 -2.94,-2.92c-3.42,-1.53 -4.04,-2.46 -3.52,-5.23z" fill="black" id="svg_3"/>
  <path d="m173,-77.07c0,-3.54 -0.16,-4.45 -0.87,-4.99c-0.76,-0.58 -0.44,-0.67 2.37,-0.68l3.25,-0.02l0,5.62l0,5.63l1.54,0.15c2.45,0.24 2.83,-0.68 2.63,-6.39l-0.17,-5.01l5.24,0l5.23,0l3.14,3.11l3.14,3.11l0,-2.33c0,-1.84 -0.23,-2.5 -1.11,-3.11c-1.05,-0.73 -0.88,-0.78 2.8,-0.78c3.8,0 3.89,0.03 2.87,0.87c-0.96,0.8 -1.06,1.47 -1.18,7.56l-0.13,6.67l-4.2,-4.05c-2.3,-2.23 -4.27,-4.05 -4.37,-4.05c-0.1,0 -0.18,1.39 -0.18,3.08c0,2.17 0.25,3.36 0.83,4c0.79,0.88 0.68,0.91 -2.88,0.9c-3.18,-0.01 -3.58,-0.11 -2.82,-0.68c0.75,-0.57 0.87,-1.55 0.87,-6.93c0,-5.47 -0.11,-6.31 -0.86,-6.59c-1.56,-0.6 -2.14,1.08 -2.14,6.24c0,4.4 -0.11,4.95 -1.19,6.12c-1.41,1.52 -4.7,2.53 -6.67,2.04c-3.92,-0.96 -5.14,-3.22 -5.14,-9.49z" fill="black" id="svg_4"/>
  <path d="m206.67,-69.06c-4.44,-3.57 -3.95,-9.65 1.04,-12.78c1.22,-0.77 2.24,-0.94 4.89,-0.81c1.84,0.1 3.49,0.31 3.66,0.49c0.53,0.52 0.91,4.4 0.43,4.38c-0.24,-0.01 -1,-0.34 -1.69,-0.73c-3.2,-1.83 -7,-0.01 -7,3.36c0,0.92 0.33,2.14 0.74,2.71c0.75,1.08 2.92,1.77 4.1,1.32c1.09,-0.42 0.79,-3 -0.45,-3.86c-1.06,-0.74 -0.95,-0.78 2.12,-0.78l3.24,0l0,3.77c0,3.59 -0.06,3.79 -1.25,4.12c-0.69,0.2 -2.75,0.35 -4.58,0.35c-2.97,0 -3.54,-0.16 -5.25,-1.54z" fill="black" id="svg_5"/>
  <path d="m220.5,-75.26c0,-4.58 -0.16,-5.85 -0.83,-6.59c-0.79,-0.88 -0.61,-0.91 4.95,-0.91l5.78,0l0.18,2.25c0.17,2.14 -0.16,2.83 -0.83,1.75c-0.17,-0.28 -1.31,-0.5 -2.53,-0.5c-1.89,0 -2.22,0.15 -2.22,1c0,0.85 0.33,1 2.25,1l2.25,0l0,1.88l0,1.87l-2.25,-0.17c-2.14,-0.17 -2.25,-0.12 -2.25,1.12c0,1.18 0.18,1.3 1.97,1.3c1.08,0 2.57,-0.23 3.31,-0.51c1.33,-0.51 1.33,-0.51 0.98,1.37c-0.19,1.03 -0.46,2.05 -0.58,2.26c-0.13,0.2 -2.85,0.38 -6.04,0.38c-5.58,0 -5.76,-0.04 -4.97,-0.92c0.67,-0.74 0.83,-2.01 0.83,-6.58z" fill="black" id="svg_6"/>
  <path d="m250.5,-75.13c0,-4.7 -0.16,-5.98 -0.83,-6.72c-0.79,-0.87 -0.72,-0.91 1.39,-0.91c2.03,0 2.46,0.24 4.94,2.75c1.49,1.51 2.89,2.75 3.11,2.75c0.74,0 0.39,-3.67 -0.44,-4.59c-0.79,-0.87 -0.68,-0.91 2.88,-0.89c3.18,0.01 3.58,0.1 2.83,0.68c-0.76,0.57 -0.88,1.57 -0.88,7.48c0,3.75 -0.17,6.82 -0.39,6.82c-0.21,0 -2.16,-1.79 -4.34,-3.98c-2.17,-2.18 -4.13,-3.86 -4.36,-3.72c-0.22,0.14 -0.41,1.47 -0.41,2.96c0,2.13 0.23,2.91 1.09,3.72l1.1,1.02l-3.96,0c-3.72,0 -3.89,-0.05 -2.84,-0.78c1.04,-0.73 1.11,-1.15 1.11,-6.59z" fill="black" id="svg_7"/>
  <path d="m362.49,-68.56c-5,-2.92 -4.85,-10.9 0.26,-13.43c1.73,-0.86 6.86,-1.01 8.28,-0.25c0.71,0.38 0.97,1.05 0.97,2.51l0,1.99l-1.48,-0.76c-0.81,-0.42 -2.37,-0.76 -3.46,-0.76c-2.73,0 -4.27,1.88 -3.89,4.73c0.31,2.32 1.38,3.27 3.68,3.27c1.54,0 1.65,-0.11 1.65,-1.69c0,-1.18 -0.34,-1.93 -1.12,-2.49c-1.08,-0.76 -0.98,-0.8 2.12,-0.69l3.25,0.12l0.15,3.85l0.14,3.84l-1.89,0.39c-3.34,0.69 -6.85,0.43 -8.66,-0.63z" fill="black" id="svg_8"/>
  <path d="m392,-75.26c0,-5.26 -0.12,-6.24 -0.87,-6.8c-0.77,-0.58 -0.57,-0.67 1.61,-0.68c2.38,-0.02 2.61,0.1 5.62,3.09l3.14,3.11l0,-2.33c0,-1.84 -0.23,-2.5 -1.11,-3.11c-1.05,-0.73 -0.88,-0.78 2.8,-0.78c3.8,0 3.89,0.03 2.87,0.87c-0.96,0.8 -1.06,1.47 -1.18,7.49l-0.13,6.61l-4.25,-3.95l-4.25,-3.95l-0.15,3.02c-0.11,2.3 0.05,3.25 0.7,3.96c0.83,0.92 0.75,0.94 -2.85,0.93c-3.18,-0.01 -3.58,-0.11 -2.82,-0.68c0.75,-0.57 0.87,-1.54 0.87,-6.8z" fill="black" id="svg_9"/>
  <path d="m302.27,-78.57c0.36,0.14 0.89,-0.04 1.18,-0.39c0.69,-0.82 5.43,-0.67 7.07,0.22c1.22,0.66 1.22,0.67 -1,1.32c-1.23,0.36 -2.61,0.54 -3.06,0.39c-1.48,-0.46 -3.38,0.68 -4.56,2.74c-1.21,2.13 -1.92,2.46 -2.85,1.34c-0.44,-0.54 -0.14,-1.07 1.44,-2.5c1.11,-1 1.86,-1.81 1.68,-1.81c-0.19,0 -0.75,0.37 -1.26,0.83c-1.12,1.02 -1.19,0.29 -0.11,-1.25c0.44,-0.63 1.1,-1.03 1.47,-0.89z" fill="black" id="svg_10"/>
  <path d="m284.15,-64.72c-1.77,0.42 -2.12,-8.65 -0.41,-10.53c1.23,-1.36 1.41,-1.28 1.15,0.49c-0.25,1.75 0.11,1.88 1.36,0.5c1.07,-1.18 1.84,-1.32 1.43,-0.25c-0.32,0.83 0.58,1.04 1.07,0.25c0.75,-1.21 1.2,-0.36 0.51,0.97c-2.58,5 1.57,9.27 5.34,5.51c1.44,-1.45 1.58,-1.48 2.71,-0.74c1.57,1.03 1.51,1.39 -0.62,3.75c-3.04,3.37 -7.48,3.87 -10.65,1.21c-0.83,-0.69 -1.67,-1.21 -1.89,-1.16z" fill="black" id="svg_11"/>
  <path d="m294.25,-73.76c-0.41,-0.34 -0.75,-0.8 -0.75,-1.02c0,-0.73 2.03,0.14 2.53,1.08c0.28,0.52 0.79,0.94 1.15,0.94c0.35,0 1.83,0.88 3.28,1.96c2.56,1.92 4.04,2.17 4.04,0.7c0,-0.4 0.23,-0.58 0.5,-0.41c0.27,0.17 0.5,1.1 0.5,2.06c0,1.36 0.19,1.72 0.82,1.6c1.35,-0.27 2.02,-1.75 1.32,-2.88c-0.57,-0.92 -0.52,-0.94 0.92,-0.44c3.21,1.12 3.17,5.15 -0.07,6.23l-1.74,0.58l1.25,0.5l1.25,0.49l-1.41,0.55c-0.77,0.31 -1.81,0.55 -2.3,0.55c-1.19,0 -3.54,-1.87 -3.54,-2.81c0,-0.41 -0.24,-0.59 -0.54,-0.41c-0.3,0.19 -0.44,0.76 -0.3,1.28c0.14,0.52 0.05,0.94 -0.19,0.94c-0.73,0 -1.47,-1.83 -1.47,-3.65c0,-1.44 -0.37,-2.03 -2.25,-3.57c-1.24,-1.01 -2.25,-2.25 -2.25,-2.75c0,-0.49 -0.34,-1.18 -0.75,-1.52z" fill="black" id="svg_12"/>
  <path clip-rule="evenodd" d="m110.64,-97.32c-0.29,-5.25 0.56,-10.33 2.39,-14.27l1.11,-2.39l0.4,3.17c0.83,6.75 4.2,11.7 15.71,23.07c4.31,4.26 8.52,8.71 9.37,9.87c2.02,2.81 2.35,2.32 0.55,-0.83c-2.09,-3.65 -6.32,-8.56 -11.28,-13.09c-6.08,-5.56 -6.59,-6.5 -6.3,-11.6c0.14,-2.41 0.6,-4.91 1.14,-6.09l0.9,-2l0.44,2.73c0.99,6.21 3.72,10.25 14.16,21.01c4.14,4.26 8.26,8.91 9.16,10.32c2.25,3.56 3.59,7.63 3.59,10.95c0,2.54 0.16,2.94 1.75,4.44c0.96,0.91 1.75,2.13 1.75,2.72c0,1.59 0.78,1.31 3.52,-1.26l2.48,-2.31l0,1.96c0,2.48 -1.2,7.11 -2.49,9.65l-0.99,1.94l3.11,0.3c1.72,0.16 9.31,0.64 16.87,1.05c7.56,0.41 18.36,1.09 24,1.51c5.64,0.42 13.74,0.97 18,1.24c4.26,0.26 10.68,0.7 14.25,0.98c10.54,0.82 19.95,1.48 28.24,1.99c4.26,0.25 13.05,0.81 19.51,1.22c29.08,1.87 46.17,2.44 72.75,2.46c25.37,0.01 33.07,-0.25 50.5,-1.71c5.56,-0.46 19.88,-2.14 25.71,-3l-0.02,73.62l-2.66,0.26l0.29,-70.89l-4.35,0.51c-40.67,5.63 -98.86,5.17 -184.47,-1.46c-3.57,-0.28 -13.03,-0.95 -21,-1.49c-7.97,-0.54 -17.76,-1.22 -21.75,-1.51c-6.46,-0.47 -10.6,-0.72 -29.75,-1.75c-2.75,-0.15 -6.35,-0.37 -8,-0.5c-2.81,-0.2 -3.12,-0.11 -4.91,1.42l-1.91,1.64l12.41,0.63c14.01,0.72 42.64,2.68 55.41,3.78c34.82,3.03 51.17,4.19 82.25,5.85c27.61,1.48 82.47,1.63 98.75,0.27c12.23,-1.03 21.17,-2.09 27.31,-3.22l-0.01,1.16l-3.16,0.7c-3.38,0.55 -8.16,1.21 -10.64,1.49c-27.31,2.99 -77.6,2.99 -128.75,0.02c-7.66,-0.45 -11.45,-0.7 -30.25,-1.99c-3.85,-0.27 -13.75,-1.06 -22,-1.75c-43.93,-3.72 -67.36,-5.19 -95.62,-6.03c-7.67,-0.22 -10.63,-0.16 -10.63,0.24c0,0.76 2.49,1.66 3.87,1.39c1.63,-0.31 1.4,0.38 -0.92,2.7c-2.47,2.46 -7.31,4.82 -10.71,5.23l-2.49,0.29l1.25,-1.16c0.7,-0.64 1.9,-2 2.68,-3.02l1.42,-1.87l-3.41,0.32l-3.4,0.32l1.61,-1.95c0.88,-1.06 1.6,-2.11 1.6,-2.33c0,-0.34 -23.95,-0.38 -35.75,-0.05c-12,0.33 -35.41,1.98 -45.59,3.22c-4.27,0.52 -4.6,0.64 -4.9,1.82l-0.31,1.25l-1.13,-1.06c-1.31,-1.23 -3.22,-1.4 -3.64,-0.32c-0.15,0.41 -0.04,1.44 0.26,2.3c0.48,1.39 0.45,1.52 -0.32,1.22c-0.48,-0.18 -1.46,-0.45 -2.18,-0.6l-1.3,-0.26l-0.1,27.54c-0.06,15.14 0.01,27.72 0.15,27.94c0.14,0.22 3.24,0.01 6.9,-0.47c40.05,-5.27 97.34,-5.87 159.16,-1.66c9.93,0.68 23.68,1.76 44,3.46c31.24,2.62 76.01,5.24 90.03,5.26c4.17,0.01 4.71,-0.11 6.87,-1.48c5.85,-3.71 20.72,-9.82 29.1,-11.96c13.85,-3.54 27.36,-3.45 36.46,0.24c3.31,1.35 3.46,1.39 3.08,0.78c-0.52,-0.85 -7.09,-3.68 -10.78,-4.65c-5.42,-1.42 -16.43,-1.79 -21.98,-0.74c-2.32,0.44 -4.3,0.72 -4.39,0.62c-0.35,-0.34 5.34,-3.83 8.71,-5.34c4.64,-2.09 11.83,-3.96 15.15,-3.94l2.75,0.02l-1.5,0.8c-1.8,0.94 -3.25,2.17 -3.25,2.72c0,1.09 2.05,1.41 5.83,0.92c5.83,-0.75 13.07,-0.65 15.42,0.22l2,0.73l-2.25,0.09c-3.02,0.11 -4.55,0.58 -5.19,1.6c-0.79,1.25 -0.05,1.74 4.33,2.88c4.62,1.21 6.72,2.14 10.36,4.55c2.8,1.87 4.84,3.88 6.96,6.88c1.15,1.63 1.26,1.67 3.74,1.34c1.4,-0.18 1.43,-0.18 2.6,-0.47l0.02,1.35l-0.05,-0.03c-0.46,0.09 -0.65,0.13 -1.03,0.2c-2.07,0.42 -2.82,0.57 -2.93,0.92c-0.05,0.19 0.1,0.45 0.34,0.86c0.08,0.13 0.16,0.28 0.25,0.44c0.83,1.51 0.44,1.59 3.3,1.3l0.09,-0.05l0,2.57c-1.45,0.2 -1.1,0.3 -1.17,0.36c-0.07,0.07 0.21,1.08 0.63,2.26c1.18,3.36 1.01,3.83 -0.87,2.41c-0.9,-0.68 -2.69,-1.85 -3.99,-2.6c-2.27,-1.32 -2.48,-1.35 -6,-0.85c-11.3,1.6 -26.79,2.51 -49.39,2.9l-18.74,0.32l-3.34,2.54c-4.68,3.56 -13.7,8.96 -16.63,9.95c-8.24,2.8 -18.28,-1.48 -25.98,-11.08l-2.37,-2.95l-4.84,-0.33c-2.67,-0.18 -8.22,-0.54 -12.35,-0.8c-28.04,-1.75 -39.76,-2.53 -41.5,-2.76c-1.1,-0.14 -8.64,-0.7 -16.75,-1.25c-8.11,-0.54 -17.79,-1.22 -21.5,-1.49c-3.71,-0.28 -10.57,-0.72 -15.25,-0.98c-4.68,-0.27 -12.1,-0.71 -16.5,-0.99c-30.57,-1.93 -78.78,-2.84 -95.61,-1.79l-6.11,0.37l-0.14,6.02l-0.14,6.01l-1.75,0.18c-0.96,0.1 -5.35,0.65 -9.75,1.22c-4.4,0.57 -11.26,1.46 -15.25,1.97c-3.99,0.51 -9.95,1.29 -13.25,1.73c-10.36,1.37 -20.86,2.77 -24.5,3.26c-1.92,0.26 -3.89,0.48 -4.37,0.49c-0.83,0.01 -0.88,-2.06 -0.88,-36.7l0,-36.71l2.13,-0.27c1.16,-0.15 5.4,-0.73 9.41,-1.28c4.01,-0.55 7.47,-1.01 7.69,-1.01c0.22,0 -0.54,-0.84 -1.68,-1.87l-2.07,-1.87l-0.57,-5.32c-0.31,-2.92 -0.44,-5.62 -0.29,-6c0.15,-0.37 0.94,-1.07 1.75,-1.54l1.49,-0.87l0.59,6.12c0.51,5.23 0.75,6.24 1.68,7.02c1.45,1.23 1.58,0.65 0.92,-4.26c-0.69,-5.1 -0.69,-8.61 -0.01,-11.06c0.4,-1.45 1.07,-2.25 2.84,-3.37c1.27,-0.81 2.46,-1.47 2.64,-1.47c0.18,0 0.98,0.57 1.78,1.27c1.29,1.13 1.36,1.32 0.61,1.76c-0.49,0.28 -1.09,1.68 -1.43,3.34c-0.33,1.57 -0.71,3.14 -0.84,3.49c-0.16,0.42 0.21,0.64 1.07,0.64c1.42,0 1.86,-0.7 2.79,-4.35c0.29,-1.16 0.7,-2.22 0.92,-2.35c0.21,-0.13 1.3,-0.01 2.41,0.27c1.69,0.43 2.18,0.87 3.11,2.77c0.78,1.62 1.31,2.17 1.87,1.96c0.42,-0.17 0.93,-0.3 1.12,-0.3c0.2,0 0.14,-1.56 -0.13,-3.47c-0.37,-2.68 -0.29,-4.59 0.33,-8.37c1.09,-6.6 2.02,-9.3 5.72,-16.63c3.35,-6.65 3.49,-8.06 0.63,-6.42c-0.82,0.47 -1.48,0.73 -1.48,0.57c0,-0.15 0.67,-1.66 1.48,-3.35c2.74,-5.68 8.29,-11.21 14.33,-14.27c2.94,-1.48 13.08,-5.04 14.37,-5.04c0.35,0 1.07,-0.34 1.6,-0.75c0.95,-0.74 0.95,-0.77 -0.21,-1.75c-0.65,-0.55 -1.66,-1.01 -2.25,-1.02c-2.2,-0.03 0.61,-1.02 5.81,-2.05c8.95,-1.78 18,-0.78 24.87,2.74l3.25,1.66l0.31,5.96c0.17,3.27 0.25,6.02 0.19,6.1c-0.08,0.08 -2.43,-1.34 -5.24,-3.16c-4.61,-3 -5.34,-3.68 -7.43,-7.01c-1.28,-2.04 -2.55,-3.63 -2.83,-3.55c-0.28,0.09 -1,1.04 -1.62,2.12c-1.19,2.09 -1.56,7.02 -0.69,9.3l0.44,1.16l-6.66,0c-4.07,0 -6.88,0.2 -7.2,0.53c-0.38,0.38 0.15,1.02 1.82,2.22c5.9,4.24 7.66,6.6 6.56,8.82c-0.71,1.42 -1.46,1.87 -9.9,5.88c-3.96,1.88 -6.49,3.46 -8.13,5.05c-2.34,2.27 -4.19,5.08 -3.69,5.58c0.14,0.14 1.4,0.01 2.81,-0.3c4.8,-1.03 10.46,-0.54 12.71,1.1c0.86,0.63 0.84,0.75 -0.34,2.49c-2.01,2.96 -2.22,6.07 -0.73,11.06l0.58,1.95l7.02,-0.33c3.86,-0.17 12.93,-0.32 20.15,-0.32c9.33,0 13.12,-0.16 13.12,-0.56c0,-1.11 -3.81,-4.34 -5.76,-4.88c-2.8,-0.78 -7.95,-0.69 -10.01,0.17c-0.95,0.39 -1.73,0.55 -1.73,0.33c0,-0.21 0.7,-1.44 1.55,-2.72c1.78,-2.69 5.47,-6.1 7.83,-7.24c0.89,-0.43 1.62,-0.93 1.62,-1.12c0,-0.19 -1.41,-0.72 -3.12,-1.19l-0.36,-0.09c-2.54,-0.69 -3.62,-0.98 -3.64,-1.33c-0.02,-0.26 0.56,-0.56 1.55,-1.07l0.19,-0.09c2.44,-1.25 9.48,-3.15 12.13,-3.26c1.17,-0.05 1,-0.15 -0.75,-0.45c-5.65,-0.95 -14.86,1.3 -19.64,4.79c-2.61,1.91 -2.67,2.69 -0.21,2.75c0.88,0.02 2.5,0.32 3.6,0.66l2,0.61l-1.5,0.38c-4.89,1.26 -13.67,5.76 -18.37,9.43c-2.16,1.68 -2.18,1.59 -1.11,-3.55c0.6,-2.89 0.65,-4.05 0.2,-5.4c-1.25,-3.8 -5.33,-5.55 -11.57,-4.97c-2.26,0.21 -3.36,0.15 -3.16,-0.18c0.59,-0.96 4.54,-3.38 11.01,-6.74c3.58,-1.87 7.01,-3.85 7.63,-4.42c2.25,-2.05 1.27,-4.87 -3.21,-9.2l-3.3,-3.18l1.94,0.25c1.07,0.13 3.46,0.37 5.32,0.53c1.86,0.15 3.94,0.5 4.63,0.76c0.07,0.03 0.15,0.05 0.22,0.08c0.49,0.19 0.77,0.3 0.88,0.2c0.16,-0.13 -0.03,-0.65 -0.48,-1.92l0,0l-0.01,-0.03c-0.04,-0.12 -0.09,-0.25 -0.14,-0.39c-0.89,-2.53 -1.16,-9.22 -0.4,-9.98c0.37,-0.36 0.73,-0.02 1.19,1.09c1.19,2.86 5.97,7.08 12.98,11.44c3.99,2.49 8.01,5.46 9.83,7.26c1.94,1.92 2.91,2.63 2.64,1.92c-0.9,-2.38 -2.99,-5.11 -5.96,-7.8l-3.09,-2.79l-0.26,-4.67zm-89.16,99.8l0,26.75l1.24,0c0.69,0 4.23,0.45 7.88,1.01c9.66,1.47 10,1.53 9.8,1.73c-0.23,0.23 -35.5,5.25 -36.89,5.25c-1.03,0 -1.03,-0.02 -1.03,-29.74c0,-27.98 0.05,-29.74 0.88,-29.77c0.48,-0.02 3.91,-0.44 7.62,-0.94c3.71,-0.5 7.59,-0.94 8.63,-0.97l1.87,-0.06l0,26.74zm-0.7,-28.24c0.44,0 0.7,-0.55 0.7,-1.5c0,-0.44 0,-0.78 -0.15,-1.01c-0.49,-0.73 -2.5,-0.45 -10.85,0.69l0,0l-7.75,1.07l-0.16,1.38c-0.2,1.71 0.01,1.72 10.09,0.37c4.09,-0.55 7.74,-1 8.12,-1zm46.59,54.36c-0.13,4.04 -0.22,4.36 -1.14,4.24c-0.55,-0.07 -5.61,-0.8 -11.25,-1.63c-5.64,-0.83 -12.91,-1.87 -16.15,-2.32c-3.25,-0.44 -5.72,-0.97 -5.5,-1.17c0.43,-0.38 5.69,-1.11 14.4,-2c10.51,-1.07 14.02,-1.36 16.89,-1.43l2.9,-0.06l-0.15,4.37zm-9.51,5.84c-0.09,-0.09 -2.5,-0.51 -5.36,-0.94c-5.92,-0.89 -6.68,-0.89 -12.52,-0.02c-3.89,0.58 -11.22,1.64 -29.45,4.28c-3.68,0.53 -7,0.96 -7.37,0.96c-0.42,0 -0.68,0.57 -0.68,1.5c0,1.22 0.21,1.5 1.11,1.5c1.15,0 49.86,-6.29 52.79,-6.82c0.9,-0.16 1.57,-0.37 1.48,-0.46zm78.03,-107.31c2.02,1.5 4.59,4.95 4.59,6.17c0,0.73 -0.24,0.82 -1.41,0.48c-0.77,-0.22 -1.91,-0.71 -2.51,-1.09c-1.95,-1.21 -4.84,-8.21 -2.95,-7.14c0.34,0.2 1.37,0.91 2.28,1.58zm3.13,16.93c1.36,-3 1.24,-4.51 -0.41,-5.31c-2.68,-1.3 -15.6,-0.98 -19.23,0.48c-1.07,0.43 -1.03,0.46 0.45,0.49c1.51,0.03 6.65,0.98 6.65,1.23c0,0.06 -0.48,1.11 -1.07,2.33c-0.6,1.22 -1.18,3.14 -1.31,4.26l-0.23,2.05l9.43,0.33c5.19,0.18 11.21,0.33 13.38,0.33c3.82,0 3.93,-0.03 3.11,-0.93c-1.05,-1.17 -5.19,-2.52 -8.88,-2.9l-2.82,-0.3l0.93,-2.06zm10.34,8.99c1.96,0.24 2.12,0.37 2.12,1.74c0,0.82 -0.28,1.59 -0.62,1.7c-0.35,0.12 -5.81,0.06 -12.13,-0.14l-11.5,-0.35l0.13,-1.25c0.01,-0.09 0.02,-0.18 0.03,-0.26c0.06,-0.66 0.11,-1.14 0.35,-1.47c0.61,-0.83 2.44,-0.77 8.85,-0.57l1.01,0.04c5.3,0.16 10.59,0.42 11.76,0.56zm-29.19,1.12c0.17,-0.87 0.26,-1.63 0.19,-1.69c-0.48,-0.38 -22.65,-0.53 -34.88,-0.23c-17.16,0.43 -26.19,1.05 -44.43,3.06l-5.68,0.63l-0.78,1.65c-0.44,0.9 -0.67,1.76 -0.52,1.91c0.14,0.15 4.74,-0.17 10.21,-0.71c17.37,-1.71 46.78,-3.04 67.26,-3.04l8.32,0l0.31,-1.58zm-90.94,4.83c0,1.26 -0.22,1.52 -1.37,1.65c-1.28,0.15 -1.38,0.03 -1.38,-1.65c0,-1.69 0.1,-1.81 1.38,-1.66c1.15,0.13 1.37,0.39 1.37,1.66zm372.14,64.44c-2.93,-3.15 -6.34,-5.04 -10.75,-5.98c-4.06,-0.86 -5.04,-0.85 -8.69,0.03c-5.21,1.27 -20.24,7.89 -22.18,9.77c-0.93,0.91 26.34,0.26 40.23,-0.96l3.75,-0.32l-2.36,-2.54zm5.86,4.51c4.84,0.61 7.95,1.43 6.89,1.82c-2.68,0.99 -26.56,2.41 -46.39,2.75l-15.5,0.26l1.96,-1.77c1.9,-1.74 2.07,-1.78 6,-1.79c6.83,0 34.8,-1.04 39.04,-1.45c2.2,-0.22 4.34,-0.33 4.75,-0.26c0.41,0.07 1.88,0.27 3.25,0.44zm-222,-8.45c-6.05,-0.41 -15.95,-0.99 -22,-1.29c-10.36,-0.52 -73.43,-1.05 -81,-0.68c-20.99,1 -27.23,1.42 -38,2.5c-6.87,0.69 -14.19,1.53 -16.25,1.85l-3.75,0.6l-0.16,1.94l-0.16,1.95l1.91,-0.33c11.78,-2.03 24.35,-3.41 41.66,-4.6c22.51,-1.54 70.11,-0.96 105.25,1.29c4.4,0.28 14.97,0.95 23.5,1.5c8.53,0.54 18.54,1.21 22.25,1.49c16.56,1.24 47.35,3.38 57.5,4c38.01,2.29 40.23,2.34 44.32,1.02c1.89,-0.61 3.75,-1.29 4.14,-1.5c0.4,-0.22 -2.61,-0.54 -6.75,-0.72c-4.1,-0.18 -13.98,-0.66 -21.96,-1.08c-28.34,-1.48 -28.58,-1.49 -62.5,-4.21c-3.57,-0.28 -10.1,-0.85 -14.5,-1.26c-4.4,-0.41 -11.26,-0.96 -15.25,-1.23c-3.99,-0.27 -12.2,-0.83 -18.25,-1.24z" fill="black" fill-rule="evenodd" id="svg_13"/>
  <path clip-rule="evenodd" d="m236.12,-81.76c-2.67,1.63 -3.71,3.76 -3.49,7.2c0.17,2.63 0.39,3.12 1.99,4.59c2.03,1.86 5.16,2.9 7.24,2.4c4.48,-1.08 6.83,-3.76 6.83,-7.81c0,-2.69 -1.03,-4.45 -3.69,-6.26c-2.19,-1.49 -6.54,-1.55 -8.88,-0.12zm4.42,10.5c3.55,0 5.26,-4.24 2.73,-6.77c-1.47,-1.48 -3.69,-1.61 -5.28,-0.32c-0.84,0.68 -1.13,1.43 -1.13,3.01c0,2.76 1.19,4.08 3.68,4.08z" fill="black" fill-rule="evenodd" id="svg_14"/>
  <path clip-rule="evenodd" d="m290.08,-82.63c0.25,2.15 0.04,2.25 -1.76,0.83c-1.09,-0.86 -1.32,-0.9 -1.32,-0.25c0,0.44 -0.37,0.79 -0.81,0.79c-0.69,0 -0.71,0.12 -0.14,0.8c0.56,0.69 0.52,0.91 -0.29,1.5c-0.52,0.39 -1.13,0.7 -1.36,0.7c-0.22,0 -0.4,0.22 -0.4,0.5c0,0.27 0.34,0.5 0.75,0.5c0.42,0 0.75,0.44 0.75,1c0,1.39 0.67,1.25 2.42,-0.5c0.83,-0.83 1.61,-1.5 1.75,-1.5c0.34,0 0.1,1.4 -0.32,1.82c-0.7,0.69 -0.32,1.18 0.9,1.18c1.1,0 1.25,0.21 1.25,1.75c0,1.8 0.26,2.04 1.43,1.3c0.52,-0.33 0.55,-0.66 0.12,-1.46c-1.42,-2.66 0.44,-3.57 2.81,-1.37c0.73,0.67 1.51,1.11 1.73,0.97c0.55,-0.34 0.52,-2.19 -0.04,-2.19c-0.24,0 -0.58,-0.56 -0.75,-1.24c-0.17,-0.68 -1.21,-2.15 -2.31,-3.27c-1.09,-1.12 -1.99,-2.26 -1.99,-2.54c0,-0.28 -0.23,-0.37 -0.51,-0.19c-0.28,0.17 -0.37,0.58 -0.21,0.9c0.16,0.32 -0.2,0.03 -0.81,-0.66l-1.1,-1.25l0.21,1.88zm4.71,5.87c0.59,0 0.63,-0.21 0.21,-1c-0.29,-0.55 -0.87,-1 -1.29,-1c-0.59,0 -0.63,0.21 -0.21,1c0.29,0.55 0.87,1 1.29,1z" fill="black" fill-rule="evenodd" id="svg_15"/>
  <path clip-rule="evenodd" d="m155,-83.29c0,0.27 0.68,1.26 1.5,2.2c1.45,1.65 1.5,1.88 1.5,6.6c0,3.86 -0.18,5.09 -0.83,5.81c-0.79,0.88 -0.64,0.92 4.13,0.91c4.06,0 5.24,-0.18 6.58,-0.99c5,-3.05 4.78,-10.53 -0.39,-13.12c-1.26,-0.64 -2.95,-0.88 -6.15,-0.88c-2.42,0 -4.84,-0.23 -5.37,-0.52c-0.64,-0.34 -0.97,-0.34 -0.97,-0.01zm11.03,11.11c1.68,-1.37 1.7,-4.78 0.03,-6.13c-1.36,-1.11 -3.48,-1.25 -3.85,-0.27c-0.15,0.37 -0.19,2.11 -0.11,3.87c0.14,3.02 0.22,3.21 1.44,3.35c0.72,0.08 1.81,-0.28 2.49,-0.82z" fill="black" fill-rule="evenodd" id="svg_16"/>
  <path clip-rule="evenodd" d="m314,-82.97c0,0.04 0.68,0.92 1.5,1.96c1.43,1.79 1.5,2.12 1.5,6.57c0,4.01 -0.14,4.82 -1,5.68l-1,1l4.88,-0.01c7.36,0 10.07,-1.83 10.5,-7.1c0.17,-2.17 0,-2.96 -0.97,-4.39c-1.78,-2.65 -3.83,-3.39 -10.03,-3.6c-2.96,-0.09 -5.38,-0.14 -5.38,-0.11zm12,7.71c0,-1.34 -0.33,-2.33 -1,-3c-0.56,-0.56 -1.67,-1 -2.5,-1l-1.5,0l0,4l0,4l1.5,0c2.14,0 3.5,-1.56 3.5,-4z" fill="black" fill-rule="evenodd" id="svg_17"/>
  <path clip-rule="evenodd" d="m332,-75.26c0,-4.58 -0.16,-5.85 -0.83,-6.59c-0.79,-0.87 -0.66,-0.91 3.53,-0.91c4.53,0 6.89,0.72 7.49,2.27c0.59,1.53 0.31,3.62 -0.64,4.79c-0.94,1.16 -0.94,1.18 0.54,3.05c0.82,1.04 1.66,1.89 1.86,1.89c0.64,0 4.65,-10.08 4.39,-11.06c-0.22,-0.83 0.05,-0.94 2.42,-0.94l2.66,0l2.59,6.62c1.48,3.79 3.05,7 3.67,7.49c1.04,0.84 0.96,0.86 -2.49,0.87c-3.52,0.02 -3.55,0.01 -3.31,-1.23c0.23,-1.22 0.15,-1.25 -2.54,-1.25c-2.93,0 -3.83,0.56 -2.82,1.77c0.52,0.62 0.06,0.73 -3.33,0.73l-3.94,0.01l-2.61,-2.88l-2.6,-2.88l-0.02,1.96c-0.01,1.14 0.32,2.34 0.81,2.87c0.79,0.88 0.68,0.92 -2.83,0.92c-3.51,0 -3.62,-0.04 -2.83,-0.92c0.67,-0.74 0.83,-2.01 0.83,-6.58zm6.35,-3.68c0.38,1 -0.42,2.37 -1.53,2.59c-0.64,0.13 -0.82,-0.24 -0.82,-1.62c0,-1.47 0.19,-1.79 1.02,-1.79c0.55,0 1.15,0.37 1.33,0.82zm12.93,5.18c1.1,0 1.24,-0.16 0.94,-1.13c-0.74,-2.43 -1.12,-2.7 -1.68,-1.21c-0.78,2.04 -0.68,2.34 0.74,2.34z" fill="black" fill-rule="evenodd" id="svg_18"/>
  <path clip-rule="evenodd" d="m377.65,-81.75c-3.52,2.32 -4.56,7.6 -2.16,10.97c3.09,4.34 10.37,4.33 13.62,-0.03c2.26,-3.02 1.54,-8.02 -1.47,-10.32c-2.46,-1.87 -7.6,-2.19 -9.99,-0.62zm8.35,6.51c0,-1.4 -0.32,-2.28 -1.1,-3c-2.55,-2.38 -6.4,-0.4 -6.4,3.3c0,2.22 1.48,3.68 3.75,3.68c2.39,0 3.75,-1.44 3.75,-3.98z" fill="black" fill-rule="evenodd" id="svg_19"/>
  <path clip-rule="evenodd" d="m419.31,-76.03c-0.68,-1.76 -0.3,-4.42 0.78,-5.57c1.17,-1.25 4.17,-1.59 5.87,-0.68c2.12,1.13 2.49,5.12 0.68,7.13c-1.73,1.93 -6.47,1.35 -7.33,-0.88zm6.67,-4.95c1.16,1.14 0.91,4.19 -0.44,5.28c-2.45,1.99 -5.54,0.44 -5.54,-2.77c0,-3.19 3.7,-4.74 5.98,-2.51zm-3.33,4.09c-0.51,1.39 -1.15,0.49 -1.15,-1.62c0,-2.23 0.01,-2.25 1.72,-2.25c1.3,0 1.79,0.25 2.05,1.05c0.18,0.58 0.09,1.29 -0.21,1.59c-0.38,0.38 -0.38,0.72 0.01,1.2c0.74,0.88 -0.6,0.91 -1.53,0.03c-0.53,-0.5 -0.71,-0.5 -0.89,0zm0.57,-1.87c0.43,0 0.78,-0.23 0.78,-0.5c0,-0.28 -0.21,-0.5 -0.47,-0.5c-0.26,0 -0.61,0.22 -0.78,0.5c-0.17,0.27 0.04,0.5 0.47,0.5z" fill="black" fill-rule="evenodd" id="svg_20"/>
  <path d="m430.51,-5.81l-0.16,-0.42l0.16,0.42z" fill="black" id="svg_24"/>
 </g>
</svg>