<?xml version="1.0"?>
<svg width="312" height="22" xmlns="http://www.w3.org/2000/svg" xmlns:svg="http://www.w3.org/2000/svg">
 <g class="layer">
  <title>Layer 1</title>
  <path clip-rule="evenodd" d="m0,-29.3l0,43.4l1.97,0.65c2.73,0.9 5.44,3.26 5.93,5.17l0.41,1.59l147.69,0l147.69,0l0.41,-1.58c0.49,-1.91 2.52,-3.7 5.61,-4.98l2.29,-0.94l0,-43.36l0,-43.36l-3.23,0c-2.19,0 -3.35,0.22 -3.62,0.68c-1.45,2.48 -7.7,2.79 -12.44,0.62l-2.83,-1.3l-133.88,0l-133.88,0l-2.83,1.3c-4.72,2.16 -11.7,1.81 -12.64,-0.63c-0.18,-0.46 -1.24,-0.67 -3.45,-0.67l-3.2,0l0,43.41zm9.55,-38.87c-1.49,-0.56 -3.19,-1.47 -3.78,-2.02c-0.62,-0.59 -1.76,-1.02 -2.68,-1.02l-1.59,0l0.01,8.12c0,5.99 0.34,10.49 1.28,17.12c1.15,8.13 1.3,11.1 1.56,30.74l0.29,21.73l1.94,2.63c3.97,5.36 8.64,8.97 13.02,10.05c3.37,0.84 269.43,0.84 272.8,0c4.37,-1.07 9,-4.65 13.03,-10.04l1.96,-2.62l0.27,-21.75c0.26,-19.7 0.4,-22.59 1.55,-30.74c0.94,-6.63 1.28,-11.13 1.29,-17.12l0,-8.12l-1.59,0c-0.91,0 -2.06,0.43 -2.68,1.02c-0.59,0.55 -2.29,1.46 -3.78,2.02c-3.06,1.14 -4,0.99 -10.2,-1.59l-3.5,-1.45l-132.75,0l-132.75,0l-3.5,1.45c-6.2,2.58 -7.14,2.73 -10.2,1.59zm-6.82,29.7c0.61,6.09 0.77,12.11 0.66,25.24c-0.14,16.74 -0.17,17.2 -1.01,15.65c-0.8,-1.46 -0.88,-3.68 -0.88,-25.45c0,-13.12 0.09,-23.76 0.21,-23.64c0.11,0.11 0.57,3.8 1.02,8.2zm11.3,57.23c-1.13,0 -6.63,-5.23 -8.85,-8.42c-1.34,-1.92 -2.7,-3.9 -3.04,-4.4c-0.5,-0.76 -0.59,-0.27 -0.5,2.82l0.11,3.74l2.27,1.08c2.17,1.03 5.98,4.65 5.98,5.68c0,0.28 1.01,0.5 2.25,0.5c1.24,0 2.25,-0.22 2.25,-0.5c0,-0.27 -0.21,-0.5 -0.47,-0.5zm295.6,-16.35l-0.88,1.61l-0.17,-2.25c-0.41,-5.65 0.34,-39.07 0.98,-43.74c0.66,-4.75 0.7,-3.81 0.82,18.89c0.12,22 0.06,24.01 -0.75,25.49zm-1.73,11.24c1.19,-0.53 2.27,-1.25 2.41,-1.6c0.13,-0.35 0.17,-2.04 0.09,-3.75l-0.15,-3.1l-2.22,3.41c-2.36,3.62 -7.91,9.39 -9.55,9.91c-1.74,0.55 -1.04,1.24 1.27,1.24c1.24,0 2.25,-0.22 2.25,-0.5c0,-1.04 3.84,-4.7 5.9,-5.61z" fill="black" fill-rule="evenodd" id="svg_1"/>
 </g>
</svg>