<?xml version="1.0"?>
<svg width="312" height="80" xmlns="http://www.w3.org/2000/svg" xmlns:svg="http://www.w3.org/2000/svg">
 <g class="layer">
  <title>Layer 1</title>
  <path clip-rule="evenodd" d="m8,-36.79c0,1.6 -2.22,3.75 -5.41,5.25l-2.59,1.21l0,54.65l0,54.64l3.25,0c1.86,0 3.25,-0.21 3.25,-0.5c0,-0.28 0.7,-0.94 1.56,-1.46c2.29,-1.39 7.36,-1.1 11.16,0.64l2.9,1.32l134.09,0c76.1,0 134.3,-0.19 134.56,-0.43c1.25,-1.15 6.16,-2.43 9.03,-2.36c2.96,0.07 5.7,1.18 5.7,2.3c0,0.27 1.46,0.49 3.25,0.49l3.25,0l0,-54.64l0,-54.65l-2.58,-1.21c-3.39,-1.59 -5.42,-3.52 -5.42,-5.16l0,-1.3l-148,0l-148,0l0,1.21zm296.81,10.4c-3.27,-4.23 -7.6,-7.73 -10.88,-8.79c-2.34,-0.75 -13.59,-0.82 -138.11,-0.79c-12.79,0 -24.39,0 -34.94,0l0,0c-99.12,0 -104.15,0 -106.78,2.52c-0.14,0.13 -0.27,0.27 -0.41,0.42c-0.28,0.3 -0.59,0.62 -1.04,0.98c-1.58,1.28 -4.04,3.82 -5.46,5.66l-2.58,3.34l-0.26,33.14c-0.24,30.97 -0.33,33.59 -1.36,40.13c-0.74,4.71 -1.18,10.23 -1.34,16.87l-0.24,9.87l2.02,0c1.1,0 2.17,-0.25 2.36,-0.56c0.19,-0.31 1.77,-1.21 3.51,-2c2.95,-1.33 3.29,-1.38 4.81,-0.73c0.9,0.38 3.22,1.28 5.15,1.99l3.51,1.3l133.23,0l133.23,0l3.51,-1.3c1.93,-0.71 4.25,-1.61 5.15,-1.99c1.52,-0.65 1.86,-0.6 4.81,0.73c1.74,0.79 3.32,1.69 3.51,2c0.19,0.31 1.23,0.56 2.32,0.56l1.97,0l0,-7.87c-0.01,-5.8 -0.35,-10.24 -1.31,-16.87c-1.26,-8.77 -1.3,-9.81 -1.55,-42.13l-0.25,-33.14l-2.58,-3.34zm-2.07,-8.14c0.89,1.73 3.31,3.68 5.91,4.77l1.85,0.77l0,3.82l0,3.82l-2.02,-3.12c-2.05,-3.17 -7.01,-8.49 -9.73,-10.43l-1.5,-1.07l2.36,-0.01c2.12,-0.02 2.44,0.13 3.13,1.45zm6.8,82.75c0.66,4.65 0.72,2.54 0.84,-30.13c0.12,-34.28 0.1,-35.17 -0.87,-36.99l-1,-1.86l0.16,31.99c0.12,24.25 0.33,33.2 0.87,36.99zm-306.79,-3.77c-0.43,4.25 -0.89,7.83 -1.02,7.95c-0.12,0.13 -0.23,-15.42 -0.23,-34.57c0,-32.11 0.07,-34.94 0.88,-36.64c0.84,-1.77 0.87,-0.89 1.01,26.85c0.12,23.23 0,30.15 -0.64,36.41zm1.21,-69.55c2.32,-3.47 6.78,-8.15 9.54,-10.01l1.25,-0.84l-2.36,-0.02c-2.1,-0.03 -2.45,0.13 -3.1,1.39c-0.85,1.65 -3.55,3.82 -6.04,4.86l-1.75,0.73l0,3.78l0,3.79l2.46,-3.68z" fill="black" fill-rule="evenodd" id="svg_1"/>
 </g>
</svg>